<svg width="40" height="40" viewBox="0 0 40 40" fill="none" xmlns="http://www.w3.org/2000/svg">
<path d="M26 20.15V11C26 10.7348 25.8946 10.4804 25.7071 10.2929C25.5196 10.1054 25.2652 10 25 10C24.7348 10 24.4804 10.1054 24.2929 10.2929C24.1054 10.4804 24 10.7348 24 11V20.15C23.134 20.4015 22.3731 20.9275 21.832 21.649C21.2909 22.3704 20.9989 23.2482 21 24.15C21 26.2 22.52 29.95 25 29.95C27.48 29.95 29 26.2 29 24.15C29.0011 23.2482 28.7091 22.3704 28.168 21.649C27.6269 20.9275 26.866 20.4015 26 20.15ZM25 28C24.2 28 23 25.73 23 24.2C22.9755 23.6436 23.172 23.1 23.5467 22.6879C23.9213 22.2758 24.4438 22.0285 25 22C25.5562 22.0285 26.0787 22.2758 26.4533 22.6879C26.828 23.1 27.0245 23.6436 27 24.2C27 25.73 25.8 28 25 28ZM18 10C17.7348 10 17.4804 10.1054 17.2929 10.2929C17.1054 10.4804 17 10.7348 17 11V16.46L16 17.13V11C16 10.7348 15.8946 10.4804 15.7071 10.2929C15.5196 10.1054 15.2652 10 15 10C14.7348 10 14.4804 10.1054 14.2929 10.2929C14.1054 10.4804 14 10.7348 14 11V17.13L13 16.46V11C13 10.7348 12.8946 10.4804 12.7071 10.2929C12.5196 10.1054 12.2652 10 12 10C11.7348 10 11.4804 10.1054 11.2929 10.2929C11.1054 10.4804 11 10.7348 11 11V17C11.0009 17.1647 11.0424 17.3267 11.1209 17.4715C11.1994 17.6162 11.3124 17.7394 11.45 17.83L14 19.54V29C14 29.2652 14.1054 29.5196 14.2929 29.7071C14.4804 29.8946 14.7348 30 15 30C15.2652 30 15.5196 29.8946 15.7071 29.7071C15.8946 29.5196 16 29.2652 16 29V19.54L18.55 17.83C18.6876 17.7394 18.8006 17.6162 18.8791 17.4715C18.9576 17.3267 18.9991 17.1647 19 17V11C19 10.7348 18.8946 10.4804 18.7071 10.2929C18.5196 10.1054 18.2652 10 18 10Z" fill="#7A7A7A"/>
<circle cx="20" cy="20" r="19" stroke="#7A7A7A" stroke-width="2"/>
</svg>
