<?xml version="1.0" standalone="no"?>
<!DOCTYPE svg PUBLIC "-//W3C//DTD SVG 20010904//EN"
 "http://www.w3.org/TR/2001/REC-SVG-20010904/DTD/svg10.dtd">
<svg version="1.0" xmlns="http://www.w3.org/2000/svg"
 width="64.000000pt" height="64.000000pt" viewBox="0 0 64.000000 64.000000"
 preserveAspectRatio="xMidYMid meet">

<g transform="translate(0.000000,64.000000) scale(0.100000,-0.100000)"
fill="#000000" stroke="none">
<path d="M168 553 l-148 -66 0 -64 c0 -35 4 -63 10 -63 6 0 10 26 10 58 l0 57
141 62 140 62 139 -62 140 -62 0 -57 c0 -32 5 -58 10 -58 6 0 10 28 10 63 l0
64 -149 66 c-81 37 -150 67 -152 67 -2 0 -70 -31 -151 -67z"/>
<path d="M272 517 c-12 -13 -22 -35 -22 -48 0 -32 38 -69 71 -69 28 0 69 37
69 63 0 26 -17 20 -24 -7 -11 -43 -78 -46 -91 -5 -10 32 4 59 36 66 35 7 39
23 6 23 -13 0 -33 -10 -45 -23z"/>
<path d="M350 505 c-13 -14 -29 -25 -37 -25 -16 0 -17 -16 -2 -26 11 -6 79 52
79 68 0 15 -16 8 -40 -17z"/>
<path d="M501 359 c-15 -44 -14 -49 9 -49 11 0 20 -7 20 -15 0 -8 -4 -15 -10
-15 -5 0 -10 -4 -10 -10 0 -5 14 -10 30 -10 17 0 30 5 30 10 0 6 -4 10 -10 10
-5 0 -10 7 -10 15 0 8 9 15 20 15 23 0 24 5 9 49 -9 25 -17 31 -39 31 -22 0
-30 -6 -39 -31z m57 -12 c2 -12 -3 -17 -17 -17 -12 0 -21 6 -21 13 0 31 32 34
38 4z"/>
<path d="M67 354 c-4 -4 -7 -31 -7 -59 0 -39 -5 -56 -20 -70 -17 -16 -20 -31
-20 -112 l0 -93 30 0 c23 0 30 4 30 20 0 19 7 20 150 20 143 0 150 -1 150 -20
0 -16 7 -20 30 -20 l30 0 0 93 c0 80 -3 96 -20 112 -14 12 -20 33 -22 74 l-3
56 -161 3 c-88 1 -163 -1 -167 -4z m313 -64 c0 -55 -17 -69 -22 -17 -3 32 -3
32 -58 32 -55 0 -55 0 -58 -32 -2 -18 -7 -33 -12 -33 -5 0 -10 15 -12 33 -3
32 -3 32 -58 32 -55 0 -55 0 -58 -32 -5 -52 -22 -38 -22 17 l0 50 150 0 150 0
0 -50z m-180 -25 c0 -22 -4 -25 -40 -25 -36 0 -40 3 -40 25 0 23 4 25 40 25
36 0 40 -2 40 -25z m140 0 c0 -22 -4 -25 -40 -25 -36 0 -40 3 -40 25 0 23 4
25 40 25 36 0 40 -2 40 -25z m78 -87 l3 -38 -190 0 -191 0 0 33 c0 19 3 37 7
41 4 3 88 5 187 4 l181 -3 3 -37z m2 -98 c0 -22 -4 -40 -10 -40 -5 0 -10 9
-10 20 0 19 -7 20 -170 20 -163 0 -170 -1 -170 -20 0 -11 -4 -20 -10 -20 -5 0
-10 18 -10 40 l0 40 190 0 190 0 0 -40z"/>
<path d="M460 160 c0 -47 4 -80 10 -80 6 0 10 14 10 30 l0 30 60 0 60 0 0 -30
c0 -16 5 -30 10 -30 6 0 10 33 10 80 l0 80 -80 0 -80 0 0 -80z m140 30 l0 -30
-60 0 -60 0 0 30 0 30 60 0 60 0 0 -30z"/>
<path d="M520 190 c0 -5 9 -10 20 -10 11 0 20 5 20 10 0 6 -9 10 -20 10 -11 0
-20 -4 -20 -10z"/>
</g>
</svg>
