<svg xmlns="http://www.w3.org/2000/svg" width="34.288" height="28.699" viewBox="0 0 34.288 28.699">
  <path id="Hear-Beat-Icon-0o3cx" d="M67.378,5.074c-3.556-1.325-8.078.4-12.5,4.749-4.425-4.346-8.946-6.073-12.5-4.749-2.719,1.014-4.449,3.7-4.626,7.2A17.111,17.111,0,0,0,41.308,22.8,34.179,34.179,0,0,0,54.04,33.021a1.221,1.221,0,0,0,.835.315h.037a1.262,1.262,0,0,0,.8-.316A34.179,34.179,0,0,0,68.442,22.8,17.1,17.1,0,0,0,72,12.27c-.177-3.492-1.907-6.183-4.626-7.2M43.01,6.787a5.313,5.313,0,0,1,1.854-.311c2.013,0,5.208.955,9.352,5.28l.659.689.66-.689c5.827-6.082,9.777-5.5,11.2-4.969,2.014.75,3.3,2.835,3.439,5.576a12.124,12.124,0,0,1-.347,3.448H52.911l-.41,2.225-1.854-7.788-3.284,6.771H40.324a12.481,12.481,0,0,1-.753-4.656C39.71,9.622,41,7.538,43.01,6.787M54.875,31.4c-7.483-3.707-11.748-8.339-13.79-12.549H48.51l1.546-3.19L52.73,26.886l1.7-9.247H69.252C66.921,23.591,60.592,28.56,54.875,31.4" transform="translate(-37.731 -4.638)"/>
</svg>
