<svg width="245" height="190" viewBox="0 0 245 190" fill="none" xmlns="http://www.w3.org/2000/svg">
<ellipse cx="122.5" cy="136.24" rx="122.5" ry="53" fill="#EAEDFD"/>
<path d="M165.078 81.0801H94.922" stroke="#47566A" stroke-width="2.04" stroke-linecap="round" stroke-linejoin="round"/>
<path d="M67.9316 70.288V51.9395H188.816V143.682C188.816 145.686 188.02 147.608 186.603 149.025C185.187 150.442 183.265 151.238 181.261 151.238C179.257 151.238 177.336 150.442 175.919 149.025C174.502 147.608 173.706 145.686 173.706 143.682V81.0813H94.9148L87.3595 70.288H67.9316Z" fill="#6A7AA1"/>
<path d="M173.706 81.081H94.9148L87.3595 70.2877H67.9316V62.7324H87.3595L94.9148 73.5257H173.706V81.081Z" fill="#6A7AA1"/>
<path d="M188.818 136.129V143.684C188.818 145.688 188.022 147.61 186.605 149.027C185.188 150.443 183.266 151.239 181.263 151.239C179.259 151.239 177.337 150.443 175.92 149.027C174.503 147.61 173.707 145.688 173.707 143.684V136.129C173.707 138.133 174.503 140.054 175.92 141.471C177.337 142.888 179.259 143.684 181.263 143.684C183.266 143.684 185.188 142.888 186.605 141.471C188.022 140.054 188.818 138.133 188.818 136.129Z" fill="#6A7AA1"/>
<path d="M181.035 151.239H64.4893C62.5399 151.239 60.6703 150.464 59.2919 149.086C57.9134 147.707 57.1391 145.838 57.1391 143.888V70.2891H87.3602L94.9155 81.0823H173.706V143.91C173.709 145.853 174.482 147.715 175.856 149.089C177.23 150.463 179.092 151.236 181.035 151.239Z" fill="url(#paint0_linear_3892_10485)"/>
<path d="M78.7313 70.286V27.1128C78.7313 23.964 79.9822 20.9442 82.2087 18.7176C84.4353 16.4911 87.4551 15.2402 90.6039 15.2402H176.95C173.801 15.2402 170.782 16.4911 168.555 18.7176C166.328 20.9442 165.078 23.964 165.078 27.1128V81.0792H94.9212L87.3659 70.286H78.7313Z" fill="#F0F0FF"/>
<path d="M165.078 76.7581V81.0754H94.9212L87.366 70.2822H78.7313V65.9648H89.611L97.1663 76.7581H165.078Z" fill="#C2B7ED"/>
<path d="M188.824 27.1128V36.8268H165.079V27.1128C165.079 23.964 166.33 20.9442 168.556 18.7176C170.783 16.4911 173.803 15.2402 176.952 15.2402C180.1 15.2402 183.12 16.4911 185.347 18.7176C187.573 20.9442 188.824 23.964 188.824 27.1128Z" fill="#C2B7ED"/>
<path d="M188.824 32.5137H165.079V36.831H188.824V32.5137Z" fill="#9E88F0"/>
<path d="M151.04 33.5883H92.7567C92.4705 33.5883 92.196 33.4746 91.9935 33.2722C91.7911 33.0698 91.6774 32.7953 91.6774 32.509C91.6774 32.2228 91.7911 31.9482 91.9935 31.7458C92.196 31.5434 92.4705 31.4297 92.7567 31.4297H151.04C151.327 31.4297 151.601 31.5434 151.804 31.7458C152.006 31.9482 152.12 32.2228 152.12 32.509C152.12 32.7953 152.006 33.0698 151.804 33.2722C151.601 33.4746 151.327 33.5883 151.04 33.5883Z" fill="#9E88F0"/>
<path d="M151.04 46.5395H92.7567C92.4705 46.5395 92.196 46.4258 91.9935 46.2234C91.7911 46.021 91.6774 45.7464 91.6774 45.4602C91.6774 45.1739 91.7911 44.8994 91.9935 44.697C92.196 44.4946 92.4705 44.3809 92.7567 44.3809H151.04C151.327 44.3809 151.601 44.4946 151.804 44.697C152.006 44.8994 152.12 45.1739 152.12 45.4602C152.12 45.7464 152.006 46.021 151.804 46.2234C151.601 46.4258 151.327 46.5395 151.04 46.5395Z" fill="#9E88F0"/>
<path d="M151.04 59.4965H92.7567C92.4705 59.4965 92.196 59.3828 91.9935 59.1804C91.7911 58.978 91.6774 58.7035 91.6774 58.4172C91.6774 58.131 91.7911 57.8564 91.9935 57.654C92.196 57.4516 92.4705 57.3379 92.7567 57.3379H151.04C151.327 57.3379 151.601 57.4516 151.804 57.654C152.006 57.8564 152.12 58.131 152.12 58.4172C152.12 58.7035 152.006 58.978 151.804 59.1804C151.601 59.3828 151.327 59.4965 151.04 59.4965Z" fill="#9E88F0"/>
<path d="M181.036 151.241H64.4904C62.541 151.241 60.6715 150.466 59.293 149.088C57.9146 147.709 57.1402 145.84 57.1402 143.89C57.1402 143.567 48.171 143.685 173.708 143.685C173.677 144.667 173.844 145.644 174.199 146.56C174.554 147.475 175.089 148.31 175.772 149.015C176.456 149.719 177.274 150.279 178.178 150.662C179.083 151.044 180.054 151.241 181.036 151.241Z" fill="#6A7AA1"/>
<defs>
<linearGradient id="paint0_linear_3892_10485" x1="119.087" y1="70.2891" x2="119.087" y2="151.239" gradientUnits="userSpaceOnUse">
<stop stop-color="#283860"/>
<stop offset="1" stop-color="#6A7AA1"/>
</linearGradient>
</defs>
</svg>
